<svg width="233" height="44" viewBox="0 0 233 44" fill="none" xmlns="http://www.w3.org/2000/svg">
<path fill-rule="evenodd" clip-rule="evenodd" d="M19.3095 0C28.2356 0 35.8698 5.79407 38.8293 13.9103L44.2416 13.9097C44.3269 13.8919 44.416 13.8805 44.5101 13.8754L44.6208 13.8722H49.0128C49.9316 13.8722 50.4879 14.4051 50.5306 15.2658L50.533 15.3751V30.6923C50.533 33.409 52.6727 35.721 55.3754 35.721C57.9717 35.721 60.1343 33.4954 60.2153 30.846L60.2178 30.6923V15.3751C60.2178 14.489 60.7351 13.9211 61.571 13.8754L61.6818 13.8722H66.13C66.9931 13.8722 67.5463 14.4032 67.5909 15.2614L67.594 15.3751V24.8989H70.4767C71.8603 18.2492 77.5788 13.4098 84.572 13.4098C92.3986 13.4098 98.3108 19.4789 98.8738 29.1895C98.9283 30.1327 98.411 30.6498 97.5726 30.6898L97.4662 30.6923H77.6462C79.0539 34.3916 82.2071 36.1256 85.2476 36.1256C87.7814 36.1256 89.9774 35.0274 91.6666 33.8136C92.4202 33.3715 93.0718 33.4045 93.6689 34.0664L93.7499 34.1604L96.2281 37.166C96.8474 37.9753 96.7342 38.7267 96.0022 39.3047C92.3423 42.1947 88.4008 43.2351 85.135 43.2351C77.4854 43.2351 71.5453 37.6945 70.3697 30.6161L67.594 30.6155V30.6923C67.594 36.3314 63.965 41.3925 58.6455 42.8019C50.5473 44.9469 43.2899 38.8327 43.1587 30.9108L43.1569 30.6923V19.6269L40.0736 19.6276C40.1194 20.2075 40.1429 20.7944 40.1429 21.3864C40.1429 33.0596 30.9816 42.5809 19.6535 42.7696L19.3095 42.7727H8.16075C7.29759 42.7727 6.7438 42.2417 6.69987 41.3836L6.69678 41.2699V15.9347C6.69678 15.5529 6.99811 15.2442 7.36936 15.2442H13.4567C13.8285 15.2442 14.1293 15.5529 14.1293 15.9347V35.2008H19.3095C26.6856 35.2008 32.7104 29.0161 32.7104 21.3864C32.7104 13.7566 26.6856 7.57193 19.3095 7.57193H14.2313V7.62211H0.928132C0.415803 7.62211 0 7.19527 0 6.66934V0.952764C0 0.426203 0.415803 0 0.928132 0H19.3095ZM84.4025 19.6524C81.0866 19.6524 78.4216 21.7681 77.7385 24.7433L77.7051 24.8989H81.675V24.9122H90.9903C90.4273 22.08 87.8935 19.6524 84.4025 19.6524Z" fill="#8B88A4"/>
<path fill-rule="evenodd" clip-rule="evenodd" d="M117.279 0C128.015 0 137.785 8.87945 138.524 19.7689C139.357 32.0512 129.863 42.338 118.002 42.5338L117.657 42.537H106.463C105.596 42.537 105.04 42.0089 104.996 41.1555L104.993 41.0424V16.2031C104.993 15.627 105.453 15.1602 106.019 15.1602H111.43C111.996 15.1602 112.456 15.627 112.456 16.2031V35.0068H117.657C125.063 35.0068 131.112 28.8562 131.112 21.2685C131.112 13.6808 125.063 7.53019 117.657 7.53019H112.456V7.58009H98.971C98.4566 7.58009 98.0391 7.15561 98.0391 6.63258V0.947512C98.0391 0.423854 98.4566 0 98.971 0H117.279ZM203.309 21.098H208.716V21.0974L209.521 21.098L209.671 21.1005C212.175 21.1814 214.18 23.2703 214.18 25.8356V41.8169C214.18 42.34 214.598 42.7644 215.112 42.7644H217.323L217.322 42.7651H224.766V43.6992C224.766 43.9306 225.017 44.0749 225.217 43.9586L231.854 40.0977C232.053 39.9822 232.053 39.6954 231.855 39.5794L225.217 35.6962C225.017 35.5792 224.766 35.7235 224.766 35.9552V37.08H221.971C221.52 37.08 221.139 36.7817 221.014 36.3717V25.8356L221.012 25.6233C220.901 19.2668 215.799 14.1496 209.521 14.1496L203.309 14.149L203.309 3.47429C203.309 2.95063 202.892 2.52677 202.378 2.52677H197.407C196.892 2.52677 196.475 2.95063 196.475 3.47429L196.475 14.1496H181.909L181.714 14.1515C176.472 14.2652 172.332 18.9307 172.965 24.4162C173.5 29.0603 177.542 32.4681 182.14 32.4681H186.738L186.84 32.4713C187.783 32.5338 188.497 33.4517 188.237 34.4687C188.059 35.1711 187.383 35.6265 186.67 35.6265H170.207V15.3479L170.204 15.2449C170.152 14.4313 169.495 13.7958 168.681 13.7958H165.232L165.13 13.799C164.397 13.8457 163.932 14.4029 163.932 15.1179V16.1526L163.693 15.9821C160.761 13.9317 157.166 12.8439 153.213 13.5527C146.375 14.7787 141.175 20.7512 141.038 27.8089C140.876 36.166 147.496 42.9969 155.621 42.9969C158.787 42.9969 161.614 41.8472 163.988 40.1228V41.2149L163.991 41.311C164.037 42.0108 164.585 42.537 165.289 42.537H167.638L167.638 42.5749H186.738L186.93 42.5724C191.807 42.4612 195.655 38.1178 195.065 33.0126C194.564 28.6907 190.803 25.5197 186.524 25.5197H181.909L181.79 25.5166C180.502 25.4458 179.512 24.2355 179.778 22.8591C179.981 21.8099 180.958 21.098 182.009 21.098H196.475L196.475 41.8169C196.475 42.34 196.892 42.7644 197.407 42.7644H202.378C202.892 42.7644 203.309 42.34 203.309 41.8169L203.309 21.098ZM148.675 28.4445C148.506 24.5042 151.582 21.0508 155.458 20.8746C159.569 20.6876 162.914 23.9735 162.914 28.1098C162.914 32.191 159.748 35.4675 155.791 35.4675C151.942 35.4675 148.842 32.3685 148.675 28.4445Z" fill="#D1D0DB"/>
</svg>
